<?xml version="1.0" encoding="UTF-8" standalone="no"?>
<!DOCTYPE svg PUBLIC "-//W3C//DTD SVG 1.1//EN" "http://www.w3.org/Graphics/SVG/1.1/DTD/svg11.dtd">
<svg width="100%" height="100%" viewBox="0 0 1280 640" version="1.1" xmlns="http://www.w3.org/2000/svg" xmlns:xlink="http://www.w3.org/1999/xlink" xml:space="preserve" xmlns:serif="http://www.serif.com/" style="fill-rule:evenodd;clip-rule:evenodd;stroke-linejoin:round;stroke-miterlimit:2;">
    <g id="Artboard1" transform="matrix(1.76466,0,0,2.08336,-447.325,-342.879)">
        <rect x="253.491" y="164.579" width="725.354" height="307.196" style="fill:none;"/>
        <clipPath id="_clip1">
            <rect x="253.491" y="164.579" width="725.354" height="307.196"/>
        </clipPath>
        <g clip-path="url(#_clip1)">
            <g transform="matrix(0.566683,0,0,0.479993,253.491,164.579)">
                <rect x="-31.606" y="-46.993" width="1363.45" height="756.742" style="fill:white;"/>
            </g>
            <g transform="matrix(1,0,0,1,0,0.699186)">
                <g transform="matrix(0.758838,0,0,0.642753,349.27,183.826)">
                    <path d="M205.577,204.469C212.245,217.396 225.088,242.764 221.908,240.321L219.792,239.107C212.996,234.219 204.184,233.139 196.716,236.637L196.306,237.063C188.838,240.561 183.951,247.358 182.854,255.336L182.495,258.272C181.348,263.739 177.247,268.006 171.385,268.122L153.805,268.472C148.781,268.57 143.679,264.486 143.15,259.053L143.1,256.542C142.113,249.025 136.532,242.018 128.931,238.82C128.522,239.246 128.096,238.837 128.096,238.837C120.497,235.641 112.161,237.481 105.973,242.209L103.496,243.935C99.379,247.367 93.091,247.075 89.25,243.384L76.444,231.077C76.019,230.669 75.635,230.229 75.291,229.764L75.211,230.028L73.134,227.918C69.397,224.122 69.029,217.838 72.412,213.681L74.107,211.183C78.762,204.939 80.501,196.581 77.215,189.021C77.215,189.021 76.865,188.666 77.134,188.288C73.499,182.96 67.381,179.136 60.739,178.223L57.803,177.863C52.35,177.555 48.084,173.455 47.967,167.592L47.944,166.428C47.696,165.407 47.604,164.337 47.696,163.252L47.749,156.631L47.617,150.012C47.512,148.928 47.59,147.857 47.826,146.834L47.835,145.669C47.882,139.806 52.099,135.655 57.548,135.28L60.479,134.886C67.109,133.893 73.181,129.996 76.752,124.625C76.479,124.25 76.824,123.891 76.824,123.891C80.019,116.292 78.18,107.956 73.451,101.768L71.725,99.291C68.294,95.174 68.586,88.886 72.277,85.045L74.328,82.91L74.412,83.174C74.75,82.704 75.129,82.26 75.549,81.847L88.206,69.388C92.003,65.651 98.287,65.283 102.444,68.665L104.942,70.361C111.186,75.015 119.544,76.755 127.104,73.468C127.104,73.468 127.525,73.054 127.939,73.475C135.501,70.186 140.998,63.113 141.895,55.584L141.915,53.073C142.378,47.633 147.43,43.489 152.455,43.526L170.039,43.665C175.902,43.712 180.053,47.929 181.265,53.381L181.66,56.313C182.852,64.277 187.821,71.015 195.331,74.423L195.745,74.844C203.255,78.253 212.053,77.067 218.79,72.098L220.891,70.859C223.87,68.513 212.824,91.198 206.108,104.67L193.771,104.67C183.845,97.839 171.824,93.839 158.877,93.839C124.849,93.839 97.222,121.466 97.222,155.494C97.222,189.522 124.849,217.148 158.877,217.148C172.954,217.148 185.936,212.42 196.316,204.469L205.577,204.469Z" style="fill:rgb(29,117,255);fill-rule:nonzero;"/>
                </g>
                <g transform="matrix(9.0194,0,0,7.63964,-6676.35,-1668.12)">
                    <path d="M797.331,251.717L802.364,251.717C802.81,252.143 803.31,252.643 803.864,253.217L803.864,256.094L803.331,256.651L803.841,257.19L803.841,260.008C803.841,260.044 803.823,260.061 803.788,260.061L801.427,260.061C801.392,260.061 801.374,260.044 801.374,260.008L801.374,257.618L799.769,257.618L799.769,260.008C799.769,260.044 799.753,260.061 799.722,260.061L797.331,260.061C797.296,260.061 797.278,260.044 797.278,260.008L797.278,251.77C797.282,251.735 797.3,251.717 797.331,251.717ZM799.769,253.976L799.769,255.538L801.398,255.538L801.398,254.352L801.012,253.976L799.769,253.976Z" style="fill:rgb(29,117,255);fill-rule:nonzero;"/>
                    <path d="M804.497,251.747L806.888,251.747C806.923,251.751 806.941,251.766 806.941,251.794L806.941,257.618L808.593,257.618L808.593,251.794C808.597,251.762 808.614,251.747 808.646,251.747L811.036,251.747C811.071,251.751 811.089,251.766 811.089,251.794L811.089,258.432C809.999,259.553 809.431,260.114 809.384,260.114C807.442,260.094 806.339,260.085 806.073,260.085C804.999,258.999 804.458,258.448 804.45,258.432L804.45,251.794C804.454,251.762 804.47,251.747 804.497,251.747Z" style="fill:rgb(29,117,255);fill-rule:nonzero;"/>
                    <g transform="matrix(0.102766,0,0,0.084134,774.956,242.615)">
                        <rect x="245.614" y="149.242" width="7.284" height="4.356" style="fill:rgb(29,117,255);"/>
                    </g>
                    <path d="M811.728,251.747L814.118,251.747C814.177,251.794 814.728,252.811 815.771,254.799L815.794,254.799L815.794,251.794C815.798,251.762 815.816,251.747 815.847,251.747L818.208,251.747C818.243,251.751 818.261,251.766 818.261,251.794L818.261,260.008C818.261,260.044 818.243,260.061 818.208,260.061L815.817,260.061C815.579,259.686 815.038,258.678 814.194,257.038L814.165,257.038L814.165,260.008C814.165,260.044 814.15,260.061 814.118,260.061L811.728,260.061C811.692,260.061 811.675,260.044 811.675,260.008L811.675,251.794C811.679,251.762 811.696,251.747 811.728,251.747Z" style="fill:rgb(29,117,255);fill-rule:nonzero;"/>
                    <path d="M820.505,251.717L824.853,251.717C824.888,251.725 824.905,251.743 824.905,251.77L824.905,254.161C824.905,254.196 824.888,254.213 824.853,254.213L821.319,254.213L821.319,257.594L824.853,257.594C824.888,257.598 824.905,257.616 824.905,257.647L824.905,260.008C824.905,260.044 824.888,260.061 824.853,260.061L820.505,260.061C819.892,259.471 819.339,258.92 818.847,258.409L818.847,253.37C819.441,252.76 819.993,252.21 820.505,251.717Z" style="fill:rgb(29,117,255);fill-rule:nonzero;"/>
                    <path d="M825.538,251.747L827.905,251.747C827.941,251.751 827.958,251.766 827.958,251.794L827.958,254.67L829.634,254.67L829.634,251.823C829.638,251.788 829.655,251.77 829.687,251.77L832.048,251.77C832.083,251.774 832.101,251.792 832.101,251.823L832.101,260.038C832.101,260.069 832.083,260.085 832.048,260.085L829.687,260.085C829.651,260.085 829.634,260.069 829.634,260.038L829.634,257.137L827.958,257.137L827.958,260.008C827.958,260.044 827.941,260.061 827.905,260.061L825.538,260.061C825.507,260.061 825.491,260.044 825.491,260.008L825.491,251.794C825.495,251.762 825.511,251.747 825.538,251.747Z" style="fill:rgb(29,117,255);fill-rule:nonzero;"/>
                </g>
                <g transform="matrix(-0.0737566,0,0,0.0624736,497.526,264.591)">
                    <path d="M140.66,244.71C145.625,244.71 152.242,244.71 158.863,246.366C182.031,203.339 226.711,175.206 279.663,175.206C304.487,107.358 369.026,59.366 443.493,59.366C551.063,59.366 632.143,152.038 618.903,257.946C754.603,319.176 711.575,524.376 560.985,524.376C534.508,524.376 511.34,517.755 489.825,506.173C446.798,530.997 393.845,530.997 350.815,506.173C307.788,530.997 253.178,530.997 210.155,506.173C190.296,517.755 165.475,524.376 140.651,524.376C62.874,524.376 -0.009,461.493 -0.009,385.366C-0.009,307.589 62.874,244.706 140.651,244.706L140.66,244.71Z" style="fill:rgb(29,117,255);"/>
                </g>
                <g transform="matrix(2.64383e-17,0.365719,-0.758838,3.93573e-17,816.195,146.538)">
                    <path d="M523.6,-40.552C517.998,-32.712 510.159,-26.552 501.202,-22.63L501.202,369.042C510.163,372.964 518.003,379.12 523.6,386.964L523.6,-40.552Z" style="fill:rgb(29,117,255);fill-rule:nonzero;"/>
                </g>
            </g>
            <g transform="matrix(2.42729,0,0,2.05597,-737.835,-678.018)">
                <text x="485.468px" y="532.985px" style="font-family:'LinLibertineDisplayO', 'Linux Libertine Display O';font-size:12px;">Data processing orchestration.</text>
            </g>
        </g>
    </g>
</svg>
